<mxfile host="app.diagrams.net" modified="2024-02-06T16:24:56.092Z" agent="Mozilla/5.0 (Windows NT 10.0; Win64; x64) AppleWebKit/537.36 (KHTML, like Gecko) Chrome/121.0.0.0 Safari/537.36" etag="Jy2R8PD-MUWlmjOPToXm" version="23.1.1" type="device">
  <diagram id="prtHgNgQTEPvFCAcTncT" name="Page-1">
    <mxGraphModel dx="1290" dy="572" grid="1" gridSize="10" guides="1" tooltips="1" connect="1" arrows="1" fold="1" page="1" pageScale="1" pageWidth="827" pageHeight="1169" math="0" shadow="0">
      <root>
        <mxCell id="0" />
        <mxCell id="1" parent="0" />
        <mxCell id="qYM-91HVmOV1srytiFzg-1" value="0. Main" style="rounded=0;whiteSpace=wrap;html=1;fontSize=16;" vertex="1" parent="1">
          <mxGeometry x="354" y="40" width="120" height="60" as="geometry" />
        </mxCell>
        <mxCell id="qYM-91HVmOV1srytiFzg-2" value="" style="endArrow=none;html=1;rounded=0;fontSize=12;startSize=8;endSize=8;curved=1;entryX=0.5;entryY=1;entryDx=0;entryDy=0;" edge="1" parent="1" target="qYM-91HVmOV1srytiFzg-1">
          <mxGeometry width="50" height="50" relative="1" as="geometry">
            <mxPoint x="414" y="160" as="sourcePoint" />
            <mxPoint x="440" y="70" as="targetPoint" />
          </mxGeometry>
        </mxCell>
        <mxCell id="qYM-91HVmOV1srytiFzg-3" value="" style="endArrow=none;html=1;rounded=0;fontSize=12;startSize=8;endSize=8;curved=1;" edge="1" parent="1">
          <mxGeometry width="50" height="50" relative="1" as="geometry">
            <mxPoint x="80" y="160" as="sourcePoint" />
            <mxPoint x="730" y="160" as="targetPoint" />
          </mxGeometry>
        </mxCell>
        <mxCell id="qYM-91HVmOV1srytiFzg-4" value="" style="endArrow=none;html=1;rounded=0;fontSize=12;startSize=8;endSize=8;curved=1;" edge="1" parent="1">
          <mxGeometry width="50" height="50" relative="1" as="geometry">
            <mxPoint x="80" y="500" as="sourcePoint" />
            <mxPoint x="79.5" y="230" as="targetPoint" />
          </mxGeometry>
        </mxCell>
        <mxCell id="qYM-91HVmOV1srytiFzg-5" value="" style="endArrow=none;html=1;rounded=0;fontSize=12;startSize=8;endSize=8;curved=1;" edge="1" parent="1" target="qYM-91HVmOV1srytiFzg-6">
          <mxGeometry width="50" height="50" relative="1" as="geometry">
            <mxPoint x="80" y="160" as="sourcePoint" />
            <mxPoint x="80" y="160" as="targetPoint" />
          </mxGeometry>
        </mxCell>
        <mxCell id="qYM-91HVmOV1srytiFzg-6" value="1. Guest" style="rounded=0;whiteSpace=wrap;html=1;fontSize=16;" vertex="1" parent="1">
          <mxGeometry x="30" y="190" width="100" height="40" as="geometry" />
        </mxCell>
        <mxCell id="qYM-91HVmOV1srytiFzg-7" value="1.1 Add" style="rounded=0;whiteSpace=wrap;html=1;fontSize=16;" vertex="1" parent="1">
          <mxGeometry x="100" y="260" width="70" height="40" as="geometry" />
        </mxCell>
        <mxCell id="qYM-91HVmOV1srytiFzg-8" value="1.2 Remove" style="rounded=0;whiteSpace=wrap;html=1;fontSize=16;" vertex="1" parent="1">
          <mxGeometry x="100" y="330" width="70" height="40" as="geometry" />
        </mxCell>
        <mxCell id="qYM-91HVmOV1srytiFzg-9" value="1.3 Getters" style="rounded=0;whiteSpace=wrap;html=1;fontSize=16;" vertex="1" parent="1">
          <mxGeometry x="100" y="400" width="70" height="40" as="geometry" />
        </mxCell>
        <mxCell id="qYM-91HVmOV1srytiFzg-10" value="1.4 Setters" style="rounded=0;whiteSpace=wrap;html=1;fontSize=16;" vertex="1" parent="1">
          <mxGeometry x="100" y="470" width="70" height="40" as="geometry" />
        </mxCell>
        <mxCell id="qYM-91HVmOV1srytiFzg-11" value="" style="endArrow=none;html=1;rounded=0;fontSize=12;startSize=8;endSize=8;curved=1;exitX=0;exitY=0.75;exitDx=0;exitDy=0;" edge="1" parent="1" source="qYM-91HVmOV1srytiFzg-10">
          <mxGeometry width="50" height="50" relative="1" as="geometry">
            <mxPoint x="450" y="480" as="sourcePoint" />
            <mxPoint x="80" y="500" as="targetPoint" />
          </mxGeometry>
        </mxCell>
        <mxCell id="qYM-91HVmOV1srytiFzg-12" value="" style="endArrow=none;html=1;rounded=0;fontSize=12;startSize=8;endSize=8;curved=1;exitX=0;exitY=0.5;exitDx=0;exitDy=0;" edge="1" parent="1" source="qYM-91HVmOV1srytiFzg-9">
          <mxGeometry width="50" height="50" relative="1" as="geometry">
            <mxPoint x="110" y="510" as="sourcePoint" />
            <mxPoint x="80" y="420" as="targetPoint" />
          </mxGeometry>
        </mxCell>
        <mxCell id="qYM-91HVmOV1srytiFzg-13" value="" style="endArrow=none;html=1;rounded=0;fontSize=12;startSize=8;endSize=8;curved=1;exitX=0;exitY=0.5;exitDx=0;exitDy=0;" edge="1" parent="1" source="qYM-91HVmOV1srytiFzg-8">
          <mxGeometry width="50" height="50" relative="1" as="geometry">
            <mxPoint x="120" y="520" as="sourcePoint" />
            <mxPoint x="80" y="350" as="targetPoint" />
          </mxGeometry>
        </mxCell>
        <mxCell id="qYM-91HVmOV1srytiFzg-14" value="" style="endArrow=none;html=1;rounded=0;fontSize=12;startSize=8;endSize=8;curved=1;exitX=0;exitY=0.5;exitDx=0;exitDy=0;" edge="1" parent="1" source="qYM-91HVmOV1srytiFzg-7">
          <mxGeometry width="50" height="50" relative="1" as="geometry">
            <mxPoint x="130" y="530" as="sourcePoint" />
            <mxPoint x="80" y="280" as="targetPoint" />
          </mxGeometry>
        </mxCell>
        <mxCell id="qYM-91HVmOV1srytiFzg-15" value="" style="endArrow=none;html=1;rounded=0;fontSize=12;startSize=8;endSize=8;curved=1;" edge="1" parent="1">
          <mxGeometry width="50" height="50" relative="1" as="geometry">
            <mxPoint x="264" y="710" as="sourcePoint" />
            <mxPoint x="263.5" y="230" as="targetPoint" />
          </mxGeometry>
        </mxCell>
        <mxCell id="qYM-91HVmOV1srytiFzg-16" value="2. Reservation" style="rounded=0;whiteSpace=wrap;html=1;fontSize=16;" vertex="1" parent="1">
          <mxGeometry x="214" y="190" width="100" height="40" as="geometry" />
        </mxCell>
        <mxCell id="qYM-91HVmOV1srytiFzg-17" value="2.1 Payment" style="rounded=0;whiteSpace=wrap;html=1;fontSize=16;" vertex="1" parent="1">
          <mxGeometry x="284" y="260" width="70" height="40" as="geometry" />
        </mxCell>
        <mxCell id="qYM-91HVmOV1srytiFzg-18" value="2.1.1 Setters" style="rounded=0;whiteSpace=wrap;html=1;fontSize=16;" vertex="1" parent="1">
          <mxGeometry x="379" y="310" width="70" height="40" as="geometry" />
        </mxCell>
        <mxCell id="qYM-91HVmOV1srytiFzg-19" value="2.1.2 Getters" style="rounded=0;whiteSpace=wrap;html=1;fontSize=16;" vertex="1" parent="1">
          <mxGeometry x="379" y="380" width="70" height="40" as="geometry" />
        </mxCell>
        <mxCell id="qYM-91HVmOV1srytiFzg-22" value="" style="endArrow=none;html=1;rounded=0;fontSize=12;startSize=8;endSize=8;curved=1;exitX=0;exitY=0.5;exitDx=0;exitDy=0;" edge="1" parent="1" source="qYM-91HVmOV1srytiFzg-19">
          <mxGeometry width="50" height="50" relative="1" as="geometry">
            <mxPoint x="353" y="510" as="sourcePoint" />
            <mxPoint x="340" y="400" as="targetPoint" />
          </mxGeometry>
        </mxCell>
        <mxCell id="qYM-91HVmOV1srytiFzg-23" value="" style="endArrow=none;html=1;rounded=0;fontSize=12;startSize=8;endSize=8;curved=1;exitX=0;exitY=0.5;exitDx=0;exitDy=0;" edge="1" parent="1" source="qYM-91HVmOV1srytiFzg-18">
          <mxGeometry width="50" height="50" relative="1" as="geometry">
            <mxPoint x="363" y="520" as="sourcePoint" />
            <mxPoint x="340" y="330" as="targetPoint" />
          </mxGeometry>
        </mxCell>
        <mxCell id="qYM-91HVmOV1srytiFzg-24" value="" style="endArrow=none;html=1;rounded=0;fontSize=12;startSize=8;endSize=8;curved=1;exitX=0;exitY=0.5;exitDx=0;exitDy=0;" edge="1" parent="1" source="qYM-91HVmOV1srytiFzg-17">
          <mxGeometry width="50" height="50" relative="1" as="geometry">
            <mxPoint x="314" y="530" as="sourcePoint" />
            <mxPoint x="264" y="280" as="targetPoint" />
          </mxGeometry>
        </mxCell>
        <mxCell id="qYM-91HVmOV1srytiFzg-25" value="" style="endArrow=none;html=1;rounded=0;fontSize=12;startSize=8;endSize=8;curved=1;" edge="1" parent="1">
          <mxGeometry width="50" height="50" relative="1" as="geometry">
            <mxPoint x="524" y="600" as="sourcePoint" />
            <mxPoint x="523.5" y="230" as="targetPoint" />
          </mxGeometry>
        </mxCell>
        <mxCell id="qYM-91HVmOV1srytiFzg-26" value="3. Room" style="rounded=0;whiteSpace=wrap;html=1;fontSize=16;" vertex="1" parent="1">
          <mxGeometry x="474" y="190" width="100" height="40" as="geometry" />
        </mxCell>
        <mxCell id="qYM-91HVmOV1srytiFzg-27" value="3.1 Room w/ Bath" style="rounded=0;whiteSpace=wrap;html=1;fontSize=16;" vertex="1" parent="1">
          <mxGeometry x="544" y="260" width="76" height="40" as="geometry" />
        </mxCell>
        <mxCell id="qYM-91HVmOV1srytiFzg-28" value="3.2 Room w/ View" style="rounded=0;whiteSpace=wrap;html=1;fontSize=16;" vertex="1" parent="1">
          <mxGeometry x="544" y="370" width="76" height="40" as="geometry" />
        </mxCell>
        <mxCell id="qYM-91HVmOV1srytiFzg-29" value="3.4 Setters" style="rounded=0;whiteSpace=wrap;html=1;fontSize=16;" vertex="1" parent="1">
          <mxGeometry x="544" y="580" width="70" height="40" as="geometry" />
        </mxCell>
        <mxCell id="qYM-91HVmOV1srytiFzg-32" value="" style="endArrow=none;html=1;rounded=0;fontSize=12;startSize=8;endSize=8;curved=1;exitX=0;exitY=0.5;exitDx=0;exitDy=0;" edge="1" parent="1" source="qYM-91HVmOV1srytiFzg-29">
          <mxGeometry width="50" height="50" relative="1" as="geometry">
            <mxPoint x="554" y="690" as="sourcePoint" />
            <mxPoint x="524" y="600" as="targetPoint" />
          </mxGeometry>
        </mxCell>
        <mxCell id="qYM-91HVmOV1srytiFzg-33" value="" style="endArrow=none;html=1;rounded=0;fontSize=12;startSize=8;endSize=8;curved=1;exitX=0;exitY=0.5;exitDx=0;exitDy=0;" edge="1" parent="1" source="qYM-91HVmOV1srytiFzg-28">
          <mxGeometry width="50" height="50" relative="1" as="geometry">
            <mxPoint x="564" y="560" as="sourcePoint" />
            <mxPoint x="524" y="390" as="targetPoint" />
          </mxGeometry>
        </mxCell>
        <mxCell id="qYM-91HVmOV1srytiFzg-34" value="" style="endArrow=none;html=1;rounded=0;fontSize=12;startSize=8;endSize=8;curved=1;exitX=0;exitY=0.5;exitDx=0;exitDy=0;" edge="1" parent="1" source="qYM-91HVmOV1srytiFzg-27">
          <mxGeometry width="50" height="50" relative="1" as="geometry">
            <mxPoint x="574" y="530" as="sourcePoint" />
            <mxPoint x="524" y="280" as="targetPoint" />
          </mxGeometry>
        </mxCell>
        <mxCell id="qYM-91HVmOV1srytiFzg-35" value="" style="endArrow=none;html=1;rounded=0;fontSize=12;startSize=8;endSize=8;curved=1;" edge="1" parent="1">
          <mxGeometry width="50" height="50" relative="1" as="geometry">
            <mxPoint x="730" y="430" as="sourcePoint" />
            <mxPoint x="729.5" y="230" as="targetPoint" />
          </mxGeometry>
        </mxCell>
        <mxCell id="qYM-91HVmOV1srytiFzg-36" value="4. Calendar" style="rounded=0;whiteSpace=wrap;html=1;fontSize=16;" vertex="1" parent="1">
          <mxGeometry x="680" y="190" width="100" height="40" as="geometry" />
        </mxCell>
        <mxCell id="qYM-91HVmOV1srytiFzg-37" value="1.1 Add" style="rounded=0;whiteSpace=wrap;html=1;fontSize=16;" vertex="1" parent="1">
          <mxGeometry x="750" y="260" width="70" height="40" as="geometry" />
        </mxCell>
        <mxCell id="qYM-91HVmOV1srytiFzg-38" value="1.2 Remove" style="rounded=0;whiteSpace=wrap;html=1;fontSize=16;" vertex="1" parent="1">
          <mxGeometry x="750" y="330" width="70" height="40" as="geometry" />
        </mxCell>
        <mxCell id="qYM-91HVmOV1srytiFzg-43" value="" style="endArrow=none;html=1;rounded=0;fontSize=12;startSize=8;endSize=8;curved=1;exitX=0;exitY=0.5;exitDx=0;exitDy=0;" edge="1" parent="1" source="qYM-91HVmOV1srytiFzg-38">
          <mxGeometry width="50" height="50" relative="1" as="geometry">
            <mxPoint x="770" y="520" as="sourcePoint" />
            <mxPoint x="730" y="350" as="targetPoint" />
          </mxGeometry>
        </mxCell>
        <mxCell id="qYM-91HVmOV1srytiFzg-44" value="" style="endArrow=none;html=1;rounded=0;fontSize=12;startSize=8;endSize=8;curved=1;exitX=0;exitY=0.5;exitDx=0;exitDy=0;" edge="1" parent="1" source="qYM-91HVmOV1srytiFzg-37">
          <mxGeometry width="50" height="50" relative="1" as="geometry">
            <mxPoint x="780" y="530" as="sourcePoint" />
            <mxPoint x="730" y="280" as="targetPoint" />
          </mxGeometry>
        </mxCell>
        <mxCell id="qYM-91HVmOV1srytiFzg-47" value="2.2 Getters" style="rounded=0;whiteSpace=wrap;html=1;fontSize=16;" vertex="1" parent="1">
          <mxGeometry x="284" y="440" width="70" height="40" as="geometry" />
        </mxCell>
        <mxCell id="qYM-91HVmOV1srytiFzg-48" value="" style="endArrow=none;html=1;rounded=0;fontSize=12;startSize=8;endSize=8;curved=1;exitX=0;exitY=0.75;exitDx=0;exitDy=0;" edge="1" parent="1" source="qYM-91HVmOV1srytiFzg-47">
          <mxGeometry width="50" height="50" relative="1" as="geometry">
            <mxPoint x="634" y="555" as="sourcePoint" />
            <mxPoint x="264" y="470" as="targetPoint" />
          </mxGeometry>
        </mxCell>
        <mxCell id="qYM-91HVmOV1srytiFzg-49" value="2.3 Setters" style="rounded=0;whiteSpace=wrap;html=1;fontSize=16;" vertex="1" parent="1">
          <mxGeometry x="284" y="510" width="70" height="40" as="geometry" />
        </mxCell>
        <mxCell id="qYM-91HVmOV1srytiFzg-50" value="" style="endArrow=none;html=1;rounded=0;fontSize=12;startSize=8;endSize=8;curved=1;exitX=0;exitY=0.75;exitDx=0;exitDy=0;" edge="1" parent="1" source="qYM-91HVmOV1srytiFzg-49">
          <mxGeometry width="50" height="50" relative="1" as="geometry">
            <mxPoint x="634" y="620" as="sourcePoint" />
            <mxPoint x="264" y="540" as="targetPoint" />
          </mxGeometry>
        </mxCell>
        <mxCell id="qYM-91HVmOV1srytiFzg-51" value="" style="endArrow=none;html=1;rounded=0;fontSize=12;startSize=8;endSize=8;curved=1;entryX=0.75;entryY=1;entryDx=0;entryDy=0;" edge="1" parent="1" target="qYM-91HVmOV1srytiFzg-17">
          <mxGeometry width="50" height="50" relative="1" as="geometry">
            <mxPoint x="337" y="400" as="sourcePoint" />
            <mxPoint x="500" y="390" as="targetPoint" />
          </mxGeometry>
        </mxCell>
        <mxCell id="qYM-91HVmOV1srytiFzg-52" value="2.4 Charge Payment" style="rounded=0;whiteSpace=wrap;html=1;fontSize=16;" vertex="1" parent="1">
          <mxGeometry x="284" y="580" width="70" height="60" as="geometry" />
        </mxCell>
        <mxCell id="qYM-91HVmOV1srytiFzg-53" value="" style="endArrow=none;html=1;rounded=0;fontSize=12;startSize=8;endSize=8;curved=1;exitX=-0.029;exitY=0.37;exitDx=0;exitDy=0;exitPerimeter=0;" edge="1" parent="1" source="qYM-91HVmOV1srytiFzg-52">
          <mxGeometry width="50" height="50" relative="1" as="geometry">
            <mxPoint x="644" y="630" as="sourcePoint" />
            <mxPoint x="270" y="602" as="targetPoint" />
          </mxGeometry>
        </mxCell>
        <mxCell id="qYM-91HVmOV1srytiFzg-54" value="" style="endArrow=none;html=1;rounded=0;fontSize=12;startSize=8;endSize=8;curved=1;entryX=0.75;entryY=1;entryDx=0;entryDy=0;" edge="1" parent="1" target="qYM-91HVmOV1srytiFzg-27">
          <mxGeometry width="50" height="50" relative="1" as="geometry">
            <mxPoint x="600" y="330" as="sourcePoint" />
            <mxPoint x="540" y="480" as="targetPoint" />
          </mxGeometry>
        </mxCell>
        <mxCell id="qYM-91HVmOV1srytiFzg-55" value="3.1.1 Getters" style="rounded=0;whiteSpace=wrap;html=1;fontSize=16;" vertex="1" parent="1">
          <mxGeometry x="620" y="310" width="70" height="40" as="geometry" />
        </mxCell>
        <mxCell id="qYM-91HVmOV1srytiFzg-56" value="" style="endArrow=none;html=1;rounded=0;fontSize=12;startSize=8;endSize=8;curved=1;exitX=0;exitY=0.5;exitDx=0;exitDy=0;" edge="1" parent="1" source="qYM-91HVmOV1srytiFzg-55">
          <mxGeometry width="50" height="50" relative="1" as="geometry">
            <mxPoint x="613" y="440" as="sourcePoint" />
            <mxPoint x="600" y="330" as="targetPoint" />
          </mxGeometry>
        </mxCell>
        <mxCell id="qYM-91HVmOV1srytiFzg-57" value="" style="endArrow=none;html=1;rounded=0;fontSize=12;startSize=8;endSize=8;curved=1;entryX=0.75;entryY=1;entryDx=0;entryDy=0;" edge="1" parent="1">
          <mxGeometry width="50" height="50" relative="1" as="geometry">
            <mxPoint x="600" y="440" as="sourcePoint" />
            <mxPoint x="601" y="410" as="targetPoint" />
          </mxGeometry>
        </mxCell>
        <mxCell id="qYM-91HVmOV1srytiFzg-58" value="3.2.1 Getters" style="rounded=0;whiteSpace=wrap;html=1;fontSize=16;" vertex="1" parent="1">
          <mxGeometry x="620" y="420" width="70" height="40" as="geometry" />
        </mxCell>
        <mxCell id="qYM-91HVmOV1srytiFzg-59" value="" style="endArrow=none;html=1;rounded=0;fontSize=12;startSize=8;endSize=8;curved=1;exitX=0;exitY=0.5;exitDx=0;exitDy=0;" edge="1" parent="1" source="qYM-91HVmOV1srytiFzg-58">
          <mxGeometry width="50" height="50" relative="1" as="geometry">
            <mxPoint x="613" y="550" as="sourcePoint" />
            <mxPoint x="600" y="440" as="targetPoint" />
          </mxGeometry>
        </mxCell>
        <mxCell id="qYM-91HVmOV1srytiFzg-60" value="3.3 Normal Room" style="rounded=0;whiteSpace=wrap;html=1;fontSize=16;" vertex="1" parent="1">
          <mxGeometry x="544" y="480" width="86" height="40" as="geometry" />
        </mxCell>
        <mxCell id="qYM-91HVmOV1srytiFzg-61" value="" style="endArrow=none;html=1;rounded=0;fontSize=12;startSize=8;endSize=8;curved=1;exitX=0;exitY=0.5;exitDx=0;exitDy=0;" edge="1" parent="1" source="qYM-91HVmOV1srytiFzg-60">
          <mxGeometry width="50" height="50" relative="1" as="geometry">
            <mxPoint x="564" y="670" as="sourcePoint" />
            <mxPoint x="524" y="500" as="targetPoint" />
          </mxGeometry>
        </mxCell>
        <mxCell id="qYM-91HVmOV1srytiFzg-62" value="" style="endArrow=none;html=1;rounded=0;fontSize=12;startSize=8;endSize=8;curved=1;entryX=0.75;entryY=1;entryDx=0;entryDy=0;" edge="1" parent="1">
          <mxGeometry width="50" height="50" relative="1" as="geometry">
            <mxPoint x="600" y="550" as="sourcePoint" />
            <mxPoint x="601" y="520" as="targetPoint" />
          </mxGeometry>
        </mxCell>
        <mxCell id="qYM-91HVmOV1srytiFzg-63" value="3.2.1 Getters" style="rounded=0;whiteSpace=wrap;html=1;fontSize=16;" vertex="1" parent="1">
          <mxGeometry x="620" y="530" width="70" height="40" as="geometry" />
        </mxCell>
        <mxCell id="qYM-91HVmOV1srytiFzg-64" value="" style="endArrow=none;html=1;rounded=0;fontSize=12;startSize=8;endSize=8;curved=1;exitX=0;exitY=0.5;exitDx=0;exitDy=0;" edge="1" parent="1" source="qYM-91HVmOV1srytiFzg-63">
          <mxGeometry width="50" height="50" relative="1" as="geometry">
            <mxPoint x="613" y="660" as="sourcePoint" />
            <mxPoint x="600" y="550" as="targetPoint" />
          </mxGeometry>
        </mxCell>
        <mxCell id="qYM-91HVmOV1srytiFzg-65" value="" style="endArrow=none;html=1;rounded=0;fontSize=12;startSize=8;endSize=8;curved=1;exitX=0.5;exitY=0;exitDx=0;exitDy=0;" edge="1" parent="1" source="qYM-91HVmOV1srytiFzg-16">
          <mxGeometry width="50" height="50" relative="1" as="geometry">
            <mxPoint x="490" y="300" as="sourcePoint" />
            <mxPoint x="264" y="160" as="targetPoint" />
          </mxGeometry>
        </mxCell>
        <mxCell id="qYM-91HVmOV1srytiFzg-66" value="" style="endArrow=none;html=1;rounded=0;fontSize=12;startSize=8;endSize=8;curved=1;entryX=0.5;entryY=0;entryDx=0;entryDy=0;" edge="1" parent="1" target="qYM-91HVmOV1srytiFzg-26">
          <mxGeometry width="50" height="50" relative="1" as="geometry">
            <mxPoint x="524" y="160" as="sourcePoint" />
            <mxPoint x="540" y="250" as="targetPoint" />
          </mxGeometry>
        </mxCell>
        <mxCell id="qYM-91HVmOV1srytiFzg-67" value="" style="endArrow=none;html=1;rounded=0;fontSize=12;startSize=8;endSize=8;curved=1;exitX=0.5;exitY=0;exitDx=0;exitDy=0;" edge="1" parent="1" source="qYM-91HVmOV1srytiFzg-36">
          <mxGeometry width="50" height="50" relative="1" as="geometry">
            <mxPoint x="490" y="300" as="sourcePoint" />
            <mxPoint x="730" y="160" as="targetPoint" />
          </mxGeometry>
        </mxCell>
        <mxCell id="qYM-91HVmOV1srytiFzg-68" value="2.5 Check Availability" style="rounded=0;whiteSpace=wrap;html=1;fontSize=16;" vertex="1" parent="1">
          <mxGeometry x="284" y="680" width="96" height="40" as="geometry" />
        </mxCell>
        <mxCell id="qYM-91HVmOV1srytiFzg-69" value="" style="endArrow=none;html=1;rounded=0;fontSize=12;startSize=8;endSize=8;curved=1;exitX=0;exitY=0.75;exitDx=0;exitDy=0;" edge="1" parent="1" source="qYM-91HVmOV1srytiFzg-68">
          <mxGeometry width="50" height="50" relative="1" as="geometry">
            <mxPoint x="634" y="795" as="sourcePoint" />
            <mxPoint x="264" y="710" as="targetPoint" />
          </mxGeometry>
        </mxCell>
        <mxCell id="qYM-91HVmOV1srytiFzg-70" value="1.3 Getters" style="rounded=0;whiteSpace=wrap;html=1;fontSize=16;" vertex="1" parent="1">
          <mxGeometry x="750" y="410" width="70" height="40" as="geometry" />
        </mxCell>
        <mxCell id="qYM-91HVmOV1srytiFzg-71" value="" style="endArrow=none;html=1;rounded=0;fontSize=12;startSize=8;endSize=8;curved=1;exitX=0;exitY=0.5;exitDx=0;exitDy=0;" edge="1" parent="1" source="qYM-91HVmOV1srytiFzg-70">
          <mxGeometry width="50" height="50" relative="1" as="geometry">
            <mxPoint x="770" y="600" as="sourcePoint" />
            <mxPoint x="730" y="430" as="targetPoint" />
          </mxGeometry>
        </mxCell>
      </root>
    </mxGraphModel>
  </diagram>
</mxfile>
